/* XPM */
static char * likewise_logo_xpm[] = {
"58 40 123 2",
"  	c None",
". 	c #00005A",
"+ 	c #000059",
"@ 	c #0060CD",
"# 	c #0060CE",
"$ 	c #0060CF",
"% 	c #0060CC",
"& 	c #0061CE",
"* 	c #0061CD",
"= 	c #000057",
"- 	c #0061CF",
"; 	c #000058",
"> 	c #00025B",
", 	c #0062D0",
"' 	c #000056",
") 	c #000055",
"! 	c #000C67",
"~ 	c #005FCB",
"{ 	c #00035D",
"] 	c #000D68",
"^ 	c #002B8C",
"/ 	c #004EB8",
"( 	c #005FCC",
"_ 	c #00025C",
": 	c #001774",
"< 	c #00399D",
"[ 	c #0052BC",
"} 	c #005CC8",
"| 	c #00126F",
"1 	c #0065D3",
"2 	c #001471",
"3 	c #0055BF",
"4 	c #0064D2",
"5 	c #0062CF",
"6 	c #000864",
"7 	c #003193",
"8 	c #0059C3",
"9 	c #000B67",
"0 	c #004DB6",
"a 	c #0064D1",
"b 	c #0063CF",
"c 	c #0063D1",
"d 	c #000863",
"e 	c #005DC9",
"f 	c #0062CE",
"g 	c #0063D0",
"h 	c #0063D2",
"i 	c #00045E",
"j 	c #000E6B",
"k 	c #00288B",
"l 	c #004BB4",
"m 	c #0056C0",
"n 	c #004AB1",
"o 	c #004CB6",
"p 	c #0057C2",
"q 	c #005ECB",
"r 	c #00015B",
"s 	c #0053BF",
"t 	c #005DCA",
"u 	c #000A65",
"v 	c #000A66",
"w 	c #000E6A",
"x 	c #0054C0",
"y 	c #0064D3",
"z 	c #0049B1",
"A 	c #000053",
"B 	c #000051",
"C 	c #000054",
"D 	c #000B66",
"E 	c #005ECA",
"F 	c #000763",
"G 	c #001776",
"H 	c #004CB5",
"I 	c #00005B",
"J 	c #0058C3",
"K 	c #005FCD",
"L 	c #000C68",
"M 	c #00106C",
"N 	c #0059C5",
"O 	c #004EB9",
"P 	c #000B68",
"Q 	c #0054BD",
"R 	c #000052",
"S 	c #005CC9",
"T 	c #0049B2",
"U 	c #002688",
"V 	c #000964",
"W 	c #000661",
"X 	c #0054BF",
"Y 	c #001371",
"Z 	c #005AC6",
"` 	c #0057C3",
" .	c #002182",
"..	c #004DB7",
"+.	c #004FB8",
"@.	c #00106D",
"#.	c #00379D",
"$.	c #0066D5",
"%.	c #0065D4",
"&.	c #000E6C",
"*.	c #00025D",
"=.	c #000D69",
"-.	c #0051BD",
";.	c #0059C6",
">.	c #0059C7",
",.	c #00015C",
"'.	c #002A8C",
").	c #0050BC",
"!.	c #000762",
"~.	c #001472",
"{.	c #0050BA",
"].	c #000A67",
"^.	c #000C69",
"/.	c #00288A",
"(.	c #004AB2",
"_.	c #000865",
":.	c #002588",
"<.	c #004BB5",
"[.	c #000D6B",
"}.	c #0052BD",
"|.	c #000562",
"1.	c #005ECC",
"2.	c #005FCE",
"                            . . + + + + . . .                       @ # $ $ $ # # @ @ %                             ",
"                            . . + + + + . . .                       @ # $ $ $ # # @ @ %                             ",
"                          . . . + + + + . . . +                 # # # # & & & & # @ @ @ @ *                         ",
"                    + + . . + + . . . . . . . + =         - @ @ # # # & & & & & & & & # # * * * *                   ",
"                  + + + . . . . . . . . . . ; = >       , - @ # # # & & & & & & & & & & & & & * @ *                 ",
"                + + + + . . . . . . . . . + ' ) !     ~ & & # & & & & & & & & & & & & & & & & @ @ @ *               ",
"              + + + + . . . . . . . . . + . { ] ^ / ( * * & & & & & & & & & & & & & & & & & & # @ & & *             ",
"            . . . . . . . . . . . . + + ; _ : < [ } @ & & & & & & & & & & & & & & & & & & & & & & & & & &           ",
"          + . . . . . . . . . . . . + . { |   } 1 - & & & & & & & & & & & & & & & & & & & & & & & & & & & *         ",
"        + + + . . . . . . . . . . + ) + 2   3 - 4 5 & & & & & & & & & & & & & & & & & & & & & & & & & & & * %       ",
"      + + + . . . . . . . . . . + + ' 6 7 8 5 # & & & & & & & & & & & & & & & # & & & & & & & & & & & & & & @ @     ",
"      + + . . . . . . . . . . ; ' . 9   0 & a & & & & & & & & & & & 5 b a 4 1 1 4 c 5 & & & & & & & & & & & @ @     ",
"    ; + + . . . . . . . . . + ; ) d   / e @ - & & & & & & & & & & & & f g a     h , - & & & & & & & & & & & # @     ",
"    + + . . . . . . . . . + + i j k l ( 5 & & & & & & & & & & f 5 * e m n         o p q & & & & & & & & & & # # @   ",
"+ + . . . . . . . . . . . + r |   s t * & & & & & & & & & * * 5 5 e       ! u v         ( & - & & & & & & & # # *   ",
"+ + . . . . . . . . . + + { w   x y c f & & & & & & & & & & * & e z     A B A C B A       q 5 & # & & & & & & & * * ",
"+ + + . . . . . . . . ; ; D     ~ , 5 & & & & & & & & * & 5 & E     F = ' = = ; = ; +     p 5 & # & & & & & & & # @ ",
"+ + + . . . . . . . . ' = G   1 5 & & & & & & & & & & & & - e H   9 I = + + . . . . ' ;     @ # & & & & & & & & # @ ",
"+ + + . . . . . . . . ) '   J 1 , & & & & & & & & & - , - K     L r + + + . . . . . ' = M   N ( & & & & & & & & * @ ",
"+ + . . . . . . . . . A     } c 5 & & & & & & & & & & - t O   P r ; . . . . . . . . = ; D   Q q - & & & & & & & * * ",
". . . . . . . . . . . R     e g 5 & & & & & & & & 5 & S T U 9 r + + . . . . . . . . ; ; V   [ q 5 5 & & & & & & @ @ ",
". . . . . . . . . . . R     e g 5 & & & & & & * & 5 e     W . + . . . . . . . . . . ; ; L   X ~ 5 5 & & & & & & # # ",
". . . . . . . . . . . A     } a 5 & & & & & & & & ( H   { = = ; . . . . . . . . . . = ; Y   Z % f & & & & & & & # # ",
". . . . . . . . . . . )     ` 1 5 * & & & * f 5 ~     9 + ; + + . . . . . . . . + + ' r  ...@ * & & & & & & & & & & ",
". . . . . . . . . . . = ;     4 g , , , , 5 5 % +.  j _ = ; . . . . . . . . . . ; ; > @.#.` 5 & * & & & & & & & & # ",
". . . . . . . . . . . ; + d       $.%.4 1 4 -     &.*.+ ; + . . . . . . . . . + ' ; =.  -.E 5 & & & & & & & & & # K ",
". . . . . . . . . . . + + r         ;.>.;.s     =.,.; + + . . . . . . . . . + . > ! '.).K @ & & & & & & & & & # #   ",
". . . + + . . . . . . . . . r !.2           ~.d _ . + + . . . . . . . . + ; ' I @.  {.t - & & & & & & & & & & & @   ",
"    + + + . . . . . . . . . + ; = )       C ' ; + . . . . . . . . . . . + + + ].    c & 5 & & & & & & & & & & &     ",
"    + + + . . . . . . . . . + ; = ' ) C C ) = ; + . . . . . . . . . . + = r ^./...- 4 5 & & & & & & & & & # # @     ",
"      + + . . . . . . . . . . . . . . . . . . . . . . . . . . . . . + + . 9     S # - & & & & & & & & & # @ @       ",
"      + + . . . . . . . . . . . . . . . . . . . . . . . . . . . . ; = r ].U (.E & & & & & & & & & & & & # @         ",
"        + + . . . . . . . . . . . . . . . . . . . . . . . . . . . ; ; _.    e & & # & & & & & & & & & & # @         ",
"          + + . . . . . . . . . . . . . . . . . . . . . . . . + . *.P :.<.K 5 5 - & & & & & & & & & & & @           ",
"            + + . . . . . . . . . . . . . . . . . . . . . + + ; . [.  }.e # & & & & & & & & & * * * * @             ",
"              + . . . . . . . . . . . . . . . . . . . . . + + + |.    $., & & & & & & & & & & * * * @               ",
"                . . . . . . . . . . . . . . . . . . . . + ; .       1.c 5 & & & & & & & & & & * @                   ",
"                  + + + . . . . . . . . . . . . . + + + + =         # - & & & & & & & & & * * @                     ",
"                      + . . . . + + . . . . . . + + + +             - - & * & & & & # # # @                         ",
"                          . . . + + . . . . . + + +                   & @ @ * & # # # # 2.                          "};
